<?xml version="1.0" standalone="no"?>
<!DOCTYPE svg PUBLIC "-//W3C//DTD SVG 20010904//EN"
 "http://www.w3.org/TR/2001/REC-SVG-20010904/DTD/svg10.dtd">
<svg version="1.0" xmlns="http://www.w3.org/2000/svg"
 width="260.000000pt" height="260.000000pt" viewBox="0 0 260.000000 260.000000"
 preserveAspectRatio="xMidYMid meet">
<metadata>
Created by potrace 1.11, written by Peter Selinger 2001-2013
</metadata>
<g transform="translate(0.000000,260.000000) scale(0.100000,-0.100000)"
fill="#000000" stroke="none">
<path d="M1813 1665 c-60 -18 -98 -49 -122 -98 -48 -99 -9 -217 89 -267 19
-10 76 -30 127 -45 106 -32 133 -52 133 -98 -1 -60 -50 -97 -128 -97 -66 0
-112 31 -132 89 l-15 43 -55 -6 c-30 -3 -58 -5 -61 -6 -10 0 9 -77 27 -114 23
-45 53 -75 99 -99 59 -32 222 -31 282 0 99 53 142 184 94 288 -33 71 -85 105
-216 141 -81 22 -132 49 -140 74 -18 56 36 95 121 88 61 -5 90 -25 99 -69 7
-29 8 -30 71 -28 64 2 64 2 64 31 0 60 -56 137 -118 164 -49 20 -166 26 -219
9z"/>
<path d="M429 1660 c-1 -3 -2 -29 -3 -57 l-3 -53 97 0 97 0 0 -297 0 -298 64
-3 64 -3 0 288 c-1 158 1 294 3 301 3 8 32 12 99 12 l94 0 -3 58 -3 57 -252 0
c-139 1 -254 -2 -254 -5z"/>
<path d="M1029 1650 c-3 -96 1 -493 6 -520 11 -65 48 -123 98 -154 40 -24 62
-30 127 -34 170 -10 258 54 276 199 10 77 11 491 2 510 -6 13 -20 17 -57 15
-27 -1 -53 -5 -58 -9 -4 -5 -8 -122 -9 -260 -1 -271 -6 -301 -55 -328 -36 -19
-116 -15 -147 8 -52 38 -55 57 -58 328 -1 138 -2 252 -3 255 0 3 -28 6 -61 6
-47 0 -60 -4 -61 -16z"/>
</g>
</svg>
